<?xml version="1.0" encoding="UTF-8"?>
<!DOCTYPE svg PUBLIC "-//W3C//DTD SVG 1.1//EN" "http://www.w3.org/Graphics/SVG/1.1/DTD/svg11.dtd">
<!-- Creator: CorelDRAW -->
<svg xmlns="http://www.w3.org/2000/svg" xml:space="preserve" width="87.8452mm" height="119.363mm" version="1.1" style="shape-rendering:geometricPrecision; text-rendering:geometricPrecision; image-rendering:optimizeQuality; fill-rule:evenodd; clip-rule:evenodd"
viewBox="0 0 2747.54 3733.33"
 xmlns:xlink="http://www.w3.org/1999/xlink"
 xmlns:xodm="http://www.corel.com/coreldraw/odm/2003">
 <defs>
  <style type="text/css">
   <![CDATA[
    .str0 {stroke:#1E3A8A;stroke-width:33.1;stroke-miterlimit:22.9256}
    .str1 {stroke:#1E3A8A;stroke-width:16.55;stroke-miterlimit:22.9256}
    .fil2 {fill:none}
    .fil0 {fill:#1E3A8A}
    .fil1 {fill:#FBF3F3}
   ]]>
  </style>
 </defs>
 <g id="Camada_x0020_1">
  <metadata id="CorelCorpID_0Corel-Layer"/>
  <g id="_2723065749888">
   <polygon class="fil0" points="2262.63,1344 1857.59,1152.74 1704.25,896.48 2062.35,945.78 "/>
   <path class="fil1" d="M493.71 3715.19l465.25 -74.91c7.91,-497.15 4.16,-1031.95 3.47,-1469.61 -0.37,-235.62 -15.84,-441.07 7.92,-601.9 48.77,-330 332.12,-579.26 576.84,-657.71 121.02,-38.79 206.89,-14.74 302.21,7.4 94.53,21.96 193.31,105.24 283.48,207.81 308.95,351.46 -8.58,1210.39 145.54,2325.5l452.09 -64.59 -3.67 -3115.58 -2235.4 303.99 2.26 3139.59z"/>
   <polygon class="fil1" points="89.66,336.73 2273.25,16.37 2726.84,271.61 491.44,575.6 "/>
   <path class="fil0 str0" d="M493.71 3715.19l-461.52 -238.71c-7.63,-3.95 -15.78,-7.04 -15.64,-15.64l51.83 -3104.81c0.14,-8.6 8.19,-19.94 15.64,-15.64l407.43 235.2c7.45,4.3 15.63,7.05 15.64,15.64l2.26 3108.31c0.01,8.59 -8.03,19.58 -15.64,15.64z"/>
   <path class="fil0 str0" d="M2262.32 3459.36l-461.52 -238.71c-7.62,-3.94 -15.67,-7.04 -15.64,-15.64 1.21,-358.94 -7.66,-774.43 0.81,-1153.53 11.49,-514.94 29.28,-965.6 -91.19,-1142.74 -28.86,-42.43 515.01,410.17 557.76,434.85 7.44,4.29 15.62,14.22 15.66,22.77l9.76 2077.36c0.04,8.55 -8.06,19.56 -15.64,15.64z"/>
   <path class="fil2 str0" d="M485.78 3701.01c-0.38,8.56 7.14,16.96 15.64,15.64l444.66 -69.17c8.49,-1.32 15.64,-7.04 15.64,-15.64 0.32,-657.35 0.64,-1314.69 0.95,-1972.04 0.26,-552.38 889.12,-1257.45 1305.17,-297.05"/>
   <path class="fil2 str0" d="M2255.04 3445.56c-0.38,8.56 7.14,16.96 15.64,15.64l444.66 -69.17c8.49,-1.32 15.64,-7.04 15.64,-15.64 0.31,-657.35 -4.44,-2447.43 -4.13,-3104.78"/>
   <path class="fil2 str0" d="M80.85 338.62c-7.62,-3.97 1772.06,-259.62 2192.4,-322.25 3.61,-0.54 410.23,231.52 453.59,255.24 7.54,4.12 -7.12,14.53 -15.64,15.64"/>
   <polygon class="fil0 str1" points="491.44,575.6 2726.84,271.61 "/>
  </g>
 </g>
</svg>
