<?xml version="1.0" encoding="UTF-8"?>
<!DOCTYPE svg PUBLIC "-//W3C//DTD SVG 1.1//EN" "http://www.w3.org/Graphics/SVG/1.1/DTD/svg11.dtd">
<!-- Creator: CorelDRAW -->
<svg xmlns="http://www.w3.org/2000/svg" xml:space="preserve" width="20.1057mm" height="15mm" version="1.1" style="shape-rendering:geometricPrecision; text-rendering:geometricPrecision; image-rendering:optimizeQuality; fill-rule:evenodd; clip-rule:evenodd"
viewBox="0 0 37.82 28.22"
 xmlns:xlink="http://www.w3.org/1999/xlink"
 xmlns:xodm="http://www.corel.com/coreldraw/odm/2003">
 <defs>
  <style type="text/css">
   <![CDATA[
    .fil0 {fill:#1E3A8A}
   ]]>
  </style>
 </defs>
 <g id="Camada_x0020_1">
  <metadata id="CorelCorpID_0Corel-Layer"/>
  <g id="_3050151249456">
   <path class="fil0" d="M13.16 28.22l1.92 -0.01c2.44,0.08 6.24,-1.05 8.33,-1.8 -0.5,-0.02 -3.27,0.36 -4.79,0.36 -3.44,-0 -7.28,-0.71 -9.33,-3.6 -0.26,-0.37 -0.77,-1.26 -0.83,-1.83 0.45,0.52 0.26,0.79 1.46,1.83 1.9,1.63 5.22,2.22 7.79,2.06 3.83,-0.24 7.22,-1.53 10.07,-3.12 1.35,-0.76 3.64,-2.38 4.76,-3.44 3.38,-3.21 6.02,-7.39 5.09,-12.68 -0.05,0.07 -0.01,-0.03 -0.08,0.14l-0.69 2.35c-0.3,0.87 -0.58,1.48 -0.96,2.26 -0.72,1.5 -1.64,2.58 -2.66,3.77 -0.44,0.51 -1.09,1.13 -1.64,1.58 -1.41,1.14 -2.05,1.67 -3.79,2.64 -0.46,0.26 -1.7,0.91 -2.24,1.05 0.25,-0.24 0.71,-0.4 1.02,-0.57 0.34,-0.19 0.65,-0.39 0.98,-0.6 0.68,-0.44 1.27,-0.86 1.82,-1.34 1.14,-1 2.14,-2.06 3,-3.31 1.76,-2.53 3,-6.6 1.02,-9.68 -3.28,-5.13 -11.3,-4.88 -16.76,-3.17l-2.33 0.81c0.39,0.01 3.2,-0.44 4.88,-0.45 2.67,-0.02 5.43,0.39 7.61,1.9 0.65,0.45 1.58,1.39 1.97,2.13 0.23,0.43 0.69,1.49 0.66,2.04 0.05,-0.53 -0.8,-1.72 -1.12,-2.09 -1.63,-1.92 -4.97,-2.54 -7.55,-2.47 -5.49,0.15 -10.53,2.35 -14.44,5.61l-1.3 1.16c-1.58,1.29 -3.72,4.38 -4.42,6.5 -0.54,1.64 -0.82,3.75 -0.4,5.47 0.01,0.04 0.03,0.12 0.05,0.16 0.13,0.3 0,0.06 0.13,0.2 0.61,-4.24 2.87,-7.25 5.26,-9.51 1.41,-1.34 3.04,-2.52 4.79,-3.4 0.51,-0.26 1.79,-0.89 2.31,-0.99 -1.21,0.39 -4.09,2.39 -5.08,3.46 -0.22,0.23 -0.4,0.41 -0.64,0.62 -0.53,0.48 -1.8,2.16 -2.17,2.75 -1.49,2.36 -2.05,5.07 -1.1,7.78 0.51,1.45 1.7,2.63 2.78,3.4 0.24,0.17 0.49,0.32 0.77,0.49 1.54,0.91 4.02,1.49 5.86,1.55zm8.29 -21.69c-5.04,0.39 -9.28,3.41 -11.12,6.32 -3.26,5.17 0.28,9.15 6.17,8.69 4.06,-0.31 8.95,-2.81 11.09,-6.32 3.18,-5.23 -0.25,-9.16 -6.14,-8.7z"/>
   <path class="fil0" d="M20.92 7.05c-4.6,0.52 -8.55,3.29 -10.18,6.14 -2.91,5.08 0.92,8.41 6.31,7.84 4.58,-0.48 8.55,-3.38 10.15,-6.14 2.89,-4.98 -0.88,-8.45 -6.29,-7.84zm-0.13 1.64c-7.53,0.6 -11.85,8.43 -6.39,10.37 0.86,0.3 1.85,0.4 2.84,0.32 3.59,-0.28 6.54,-2.43 7.87,-4.5 2.34,-3.63 -0.21,-6.52 -4.33,-6.19z"/>
   <path class="fil0" d="M21.14 8.99c-3.53,0.11 -6.34,2.01 -7.72,3.91 -2.34,3.22 -0.63,6.25 3.44,6.19 3.44,-0.05 6.33,-2.08 7.69,-3.95 2.3,-3.15 0.54,-6.27 -3.42,-6.15z"/>
   <path class="fil0" d="M19.32 12.43c-0.45,0.11 -0.07,-0.09 -0.78,0.2 -0.54,0.23 -0.55,0.27 -0.93,0.57 -1.79,1.39 -0.54,3.41 1.85,2.37l0.67 -0.35c0.4,-0.24 0.78,-0.62 0.99,-1.06 0.24,-0.5 0.19,-1.17 -0.2,-1.45 -0.53,-0.39 -1.08,-0.4 -1.61,-0.27z"/>
  </g>
 </g>
</svg>
