<?xml version="1.0" encoding="UTF-8"?>
<!DOCTYPE svg PUBLIC "-//W3C//DTD SVG 1.1//EN" "http://www.w3.org/Graphics/SVG/1.1/DTD/svg11.dtd">
<!-- Creator: CorelDRAW -->
<svg xmlns="http://www.w3.org/2000/svg" xml:space="preserve" width="25.7936mm" height="29.2064mm" version="1.1" style="shape-rendering:geometricPrecision; text-rendering:geometricPrecision; image-rendering:optimizeQuality; fill-rule:evenodd; clip-rule:evenodd"
viewBox="0 0 63.27 71.65"
 xmlns:xlink="http://www.w3.org/1999/xlink"
 xmlns:xodm="http://www.corel.com/coreldraw/odm/2003">
 <defs>
  <style type="text/css">
   <![CDATA[
    .fil1 {fill:#E4BC00}
    .fil2 {fill:#FDD800}
    .fil0 {fill:#FEFEFE}
   ]]>
  </style>
 </defs>
 <g id="Camada_x0020_1">
  <metadata id="CorelCorpID_0Corel-Layer"/>
  <g id="_2497750664048">
   <g id="_1346534344880">
    <polygon class="fil0" points="3.01,3.73 57.81,3.73 50,63.66 8.16,61.65 "/>
    <g>
     <path class="fil1" d="M10.83 45.28l9.14 2.45c0.95,0.24 2.17,0.73 3.17,0.75l-0.54 -35.29 6.75 0 0.68 44.38c-0.74,-0.07 -1.7,-0.38 -2.43,-0.6l-7.16 -1.94c-1.52,-0.41 -3.12,-0.85 -4.75,-1.32l-4.75 -1.33 -0.1 -7.13 0.01 0.02zm20.95 -39.74l25.27 0.06c-0.14,4.38 -0.59,9.2 -0.97,13.66 -0.39,4.52 -0.5,9.19 -0.99,13.72 -0.49,4.5 -0.55,9.18 -0.99,13.72 -0.24,2.49 -0.57,12.17 -1.11,13.67 -0.7,0.61 -8.49,2.52 -10.07,2.91 -2.01,0.5 -8.95,2.6 -10.22,2.74l-0.93 -60.48 0.01 -0.01zm-25.28 58.8c1.05,0.24 2.13,0.6 3.22,0.89l23.03 6.42 25.07 -7.01c0.76,-0.17 0.95,0.31 1.08,-2.09 0.07,-1.18 0.09,-1.85 0.15,-3.01l2.56 -35.73c0.26,-1.95 0.16,-4.02 0.39,-5.94l0.84 -11.81c0.07,-1.9 0.47,-4.13 0.44,-6.06l-63.27 0c0.25,2.56 0.71,5.38 0.83,8.02 0.11,2.55 0.73,5.44 0.83,8.02l2.47 24.09c0.38,3.15 0.74,9.13 1.2,11.98l1.16 12.22 0 0.01z"/>
     <path class="fil2" d="M53.1 20.15l-11.73 0 0.19 12.3c0.51,-0.25 4.65,-0.78 5.64,-0.93l5.71 -0.86 -1.33 16.77c-0.09,1.34 -0.21,4.54 -0.46,5.69l-16.11 4.46 -0.1 -7.13c3.03,-0.71 6.02,-1.77 9.03,-2.49 1.9,-0.47 1.12,-0.21 1.6,-4.2 0.21,-1.7 0.23,-3.75 0.55,-5.24 -0.79,0.02 -1.87,0.28 -2.79,0.41 -0.81,0.12 -2.04,0.31 -2.91,0.46 -1.85,0.31 -3.91,0.52 -5.64,0.92l-0.42 -27.09 19.73 0 -0.44 5.37c-0.04,0.8 0.27,1.58 -0.53,1.58l0 -0.01zm-20.39 45.87c1.27,-0.15 8.2,-2.24 10.22,-2.74 1.58,-0.39 9.37,-2.3 10.07,-2.91 0.53,-1.5 0.87,-11.18 1.11,-13.67 0.44,-4.54 0.5,-9.21 0.99,-13.72 0.5,-4.53 0.59,-9.2 0.99,-13.72 0.39,-4.46 0.83,-9.28 0.97,-13.66l-25.27 -0.06 0.93 60.48 -0.01 0.01z"/>
    </g>
   </g>
  </g>
 </g>
</svg>
