<?xml version="1.0" encoding="UTF-8"?>
<!DOCTYPE svg PUBLIC "-//W3C//DTD SVG 1.1//EN" "http://www.w3.org/Graphics/SVG/1.1/DTD/svg11.dtd">
<!-- Creator: CorelDRAW -->
<svg xmlns="http://www.w3.org/2000/svg" xml:space="preserve" width="41.6905mm" height="42.9109mm" version="1.1" style="shape-rendering:geometricPrecision; text-rendering:geometricPrecision; image-rendering:optimizeQuality; fill-rule:evenodd; clip-rule:evenodd"
viewBox="0 0 147.72 152.05"
 xmlns:xlink="http://www.w3.org/1999/xlink"
 xmlns:xodm="http://www.corel.com/coreldraw/odm/2003">
 <defs>
  <style type="text/css">
   <![CDATA[
    .fil0 {fill:#FF2C1F}
   ]]>
  </style>
 </defs>
 <g id="Camada_x0020_1">
  <metadata id="CorelCorpID_0Corel-Layer"/>
  <path class="fil0" d="M61.93 145.53l0 -27.42 3.29 -1.84c1.1,-0.65 2.18,-1.23 3.28,-1.86l13.07 -7.47c2.61,-1.41 5.52,-3.17 8.18,-4.66l24.13 -13.78c0.18,-0.11 0.24,-0.16 0.47,-0.21l0 27.04c-0.51,0.34 -1.06,0.62 -1.62,0.95l-1.63 0.94c-0.55,0.3 -1.06,0.62 -1.64,0.93l-9.82 5.66c-3.11,1.87 -6.76,3.79 -9.83,5.65l-27.88 16.07zm-31.1 -145.53l0.34 0c0.39,0.03 0.81,0.17 1.29,0.47 0.37,0.23 0.71,0.43 1.1,0.64l3.31 1.9c0.2,0.12 0.37,0.21 0.58,0.33 0.19,0.11 0.32,0.2 0.52,0.31 3.69,2.05 7.32,4.21 10.98,6.32l10.45 6.01c0.93,0.56 1.89,0.9 2.36,1.94 0.33,0.74 0.17,2.29 0.17,3.3l0 58.76c0.92,-0.62 1.99,-1.17 2.97,-1.71 3.99,-2.23 7.87,-4.65 11.88,-6.85l4.46 -2.57c0.61,-0.34 4.03,-2.44 4.48,-2.54l0 -30.44c-0,-1.81 0.3,-2.44 1.79,-3.27l10.5 -6.04c0.29,-0.16 0.52,-0.3 0.81,-0.47 0.3,-0.18 0.52,-0.29 0.82,-0.46 0.28,-0.16 0.47,-0.29 0.76,-0.45l6.43 -3.69c1.09,-0.64 2.15,-1.21 3.21,-1.85l4.84 -2.79c1.02,-0.62 1.98,-0.97 3.12,-0.33l4.98 2.87c0.69,0.38 1.27,0.75 1.96,1.13 0.36,0.2 0.65,0.37 1,0.59 2.61,1.58 5.31,3.05 7.96,4.58l9.97 5.74c0.94,0.54 2.1,1.09 2.94,1.74 0.56,0.44 0.91,1.18 0.91,2.18l0 31.95c0,0.99 -0.29,1.63 -0.81,2.14 -0.44,0.42 -3.89,2.32 -4.6,2.72l-4.65 2.67c-0.34,0.19 -0.63,0.38 -0.96,0.55l-8.33 4.81c-3.06,1.66 -6.24,3.71 -9.26,5.31 0,9.21 0,18.43 0,27.64 0,5.42 0.63,4.59 -3.43,6.99l-6.51 3.76c-0.76,0.42 -1.48,0.83 -2.21,1.26 -4.32,2.61 -8.8,4.97 -13.13,7.56l-8.78 5.05c-2.21,1.2 -4.39,2.52 -6.57,3.78 -0.36,0.21 -0.72,0.4 -1.1,0.63l-3.26 1.88c-2.89,1.73 -5.88,3.32 -8.77,5.05 -0.38,0.23 -0.72,0.4 -1.1,0.63l-2.73 1.58c-1.92,1.16 -2.45,0.85 -4.26,-0.19l-5.46 -3.15c-0.39,-0.22 -0.72,-0.42 -1.09,-0.64 -3.26,-1.95 -6.61,-3.75 -9.88,-5.68l-7.62 -4.39c-0.39,-0.23 -0.74,-0.42 -1.1,-0.63 -2.17,-1.25 -4.36,-2.59 -6.57,-3.78 -0.38,-0.2 -0.71,-0.41 -1.11,-0.63 -0.22,-0.12 -0.36,-0.21 -0.57,-0.34l-6.04 -3.47c-3.96,-2.38 -8.04,-4.58 -12.03,-6.93l-3.26 -1.87c-1.04,-0.56 -2.52,-1.22 -2.52,-2.62l0 -98.26c0,-1.43 1.16,-1.96 2.15,-2.54 0.35,-0.2 0.63,-0.35 0.96,-0.55l7.86 -4.52c2.64,-1.47 5.2,-3.08 7.86,-4.53l9.82 -5.66c0.81,-0.48 1.46,-0.88 2.17,-0.94zm-26.07 23.03c0.28,0.07 2.68,1.48 2.96,1.65l8.92 5.13c1.45,0.81 11.52,6.73 11.91,6.82l0 61.93c0,4 -0.12,3.29 4.38,5.89l24.24 13.67 0 27.34c-0.32,-0.08 -0.58,-0.26 -0.85,-0.43 -2.34,-1.4 -5.04,-2.83 -7.33,-4.22 -2.4,-1.45 -5.73,-3.3 -8.2,-4.72 -2.81,-1.62 -6.14,-3.62 -8.97,-5.16l-10.63 -6.14c-0.57,-0.33 -1.09,-0.62 -1.63,-0.93 -3.14,-1.81 -6.87,-3.87 -9.88,-5.68 -1.38,-0.83 -3.83,-2.12 -4.92,-2.86l0 -92.29zm31.04 77.56c0.11,-0.1 0.03,-0.03 0.18,-0.13l1.43 -0.83c0.57,-0.32 1.07,-0.62 1.62,-0.94l9.83 -5.65c0.53,-0.32 1.07,-0.6 1.63,-0.93l3.26 -1.88c3.11,-1.87 6.76,-3.8 9.83,-5.65 2.18,-1.32 5.06,-2.92 7.34,-4.22 0.27,-0.16 0.5,-0.31 0.81,-0.48 0.58,-0.31 1.06,-0.61 1.64,-0.93l2.49 -1.44c0.3,-0.17 0.52,-0.32 0.81,-0.48 0.55,-0.3 1.06,-0.62 1.64,-0.93l2.44 -1.41c0.61,-0.33 7.23,-4.23 7.4,-4.23 0.17,0 6.44,3.71 7.4,4.23 2.31,1.25 5.01,2.93 7.38,4.25 2.65,1.48 5.54,3.26 8.15,4.69 0.25,0.14 0.53,0.36 0.78,0.43 -0.15,0.2 -0.83,0.55 -1.11,0.7l-2.36 1.34c-0.39,0.23 -0.79,0.45 -1.2,0.69l-33.27 18.99c-3.07,1.68 -6.36,3.68 -9.47,5.41l-4.76 2.72c-0.26,0.09 -0.42,-0.07 -0.61,-0.19l-1.78 -1.01c-0.42,-0.25 -0.78,-0.46 -1.2,-0.69l-8.3 -4.69c-1.41,-0.85 -3.3,-1.83 -4.78,-2.7 -0.81,-0.48 -6.89,-3.96 -7.22,-4.03zm-2.42 -4.23l0 -59.74c0.31,-0.07 8.73,-4.97 8.9,-5.07 2.84,-1.7 6.06,-3.42 8.91,-5.14 0.22,-0.13 5.64,-3.3 5.98,-3.38l0 59.66c-0.9,0.6 -5.49,3.19 -6.65,3.85 -0.27,0.15 -0.49,0.27 -0.77,0.43l-2.97 1.71c-2.36,1.29 -5.08,3.01 -7.43,4.28 -0.32,0.18 -5.67,3.32 -5.97,3.4zm85.72 -16.39l0 -27.11 2.21 -1.26c0.28,-0.16 0.47,-0.29 0.76,-0.45 1.03,-0.56 1.95,-1.14 2.97,-1.71 1.02,-0.57 1.98,-1.14 2.97,-1.71l8.15 -4.69c2.1,-1.13 4.58,-2.72 6.72,-3.85l0 27.11c-0.3,0.07 -3.97,2.26 -4.48,2.54 -0.52,0.28 -1.01,0.56 -1.49,0.85l-2.97 1.72c-1.03,0.56 -1.95,1.14 -2.97,1.71l-11.88 6.85zm-28.55 -40.78c0.5,0.26 1,0.55 1.5,0.84 4.21,2.55 9.12,5.15 13.37,7.7l5.95 3.42c1,0.59 1.97,1.17 2.98,1.71l0 27.04c-0.32,-0.07 -0.52,-0.24 -0.76,-0.37l-5.18 -2.98c-2.38,-1.3 -5.07,-3 -7.43,-4.28 -2.33,-1.26 -5.07,-2.99 -7.43,-4.28l-2.21 -1.27c-0.21,-0.13 -0.57,-0.36 -0.79,-0.42l0 -27.11zm2.42 -4.23c0.2,-0.05 0.55,-0.28 0.74,-0.39 0.24,-0.15 0.47,-0.27 0.72,-0.41l4.46 -2.57c2.3,-1.26 5.05,-2.91 7.38,-4.25l3.7 -2.12c0.62,-0.33 6.5,-3.81 6.73,-3.83 0.2,-0.01 2.61,1.42 2.95,1.62l8.92 5.13c2.91,1.62 5.97,3.49 8.91,5.14l2.2 1.27c0.22,0.13 0.58,0.36 0.8,0.41 -0.14,0.19 -1.18,0.73 -1.46,0.88l-1.48 0.86c-0.99,0.57 -1.95,1.14 -2.97,1.71l-8.91 5.14c-1.02,0.57 -1.94,1.15 -2.97,1.71 -1.04,0.57 -5.73,3.39 -5.93,3.4 -0.15,0.01 -1.23,-0.65 -1.48,-0.8 -0.51,-0.3 -0.97,-0.56 -1.48,-0.86 -1.02,-0.6 -1.98,-1.11 -2.97,-1.71 -1,-0.6 -1.98,-1.11 -2.97,-1.71 -3.77,-2.26 -8.04,-4.57 -11.89,-6.84 -0.31,-0.18 -2.82,-1.56 -2.98,-1.78zm-62.01 -29.76c0.18,0 1.24,0.66 1.47,0.8l8.92 5.12c0.52,0.31 0.98,0.55 1.48,0.86 0.5,0.3 0.99,0.56 1.49,0.85 1.02,0.59 10.14,5.76 10.35,6.04l-5.91 3.38c-1.97,1.18 -3.96,2.25 -5.94,3.43l-11.87 6.78 -2.96 -1.65c-3.85,-2.31 -8.02,-4.56 -11.89,-6.84 -0.72,-0.43 -8.57,-5.02 -8.94,-5.1l0.32 -0.21c1.68,-1.03 3.86,-2.2 5.61,-3.23 3.86,-2.28 8.07,-4.55 11.89,-6.84l4.46 -2.57c0.2,-0.12 1.38,-0.82 1.53,-0.82z"/>
 </g>
</svg>
