<?xml version="1.0" encoding="UTF-8"?>
<!DOCTYPE svg PUBLIC "-//W3C//DTD SVG 1.1//EN" "http://www.w3.org/Graphics/SVG/1.1/DTD/svg11.dtd">
<!-- Creator: CorelDRAW -->
<svg xmlns="http://www.w3.org/2000/svg" xml:space="preserve" width="33.9462mm" height="39.3016mm" version="1.1" style="shape-rendering:geometricPrecision; text-rendering:geometricPrecision; image-rendering:optimizeQuality; fill-rule:evenodd; clip-rule:evenodd"
viewBox="0 0 295.68 342.33"
 xmlns:xlink="http://www.w3.org/1999/xlink"
 xmlns:xodm="http://www.corel.com/coreldraw/odm/2003">
 <defs>
  <style type="text/css">
   <![CDATA[
    .fil0 {fill:#0074BE}
    .fil1 {fill:#0088C9}
    .fil2 {fill:#FEFEFE}
   ]]>
  </style>
 </defs>
 <g id="Camada_x0020_1">
  <metadata id="CorelCorpID_0Corel-Layer"/>
  <path class="fil0" d="M150.6 342.28c1.37,0 4.45,-1.21 5.96,-1.64l53.39 -15.44c3.96,-1.23 7.93,-2.3 11.93,-3.47 7.92,-2.31 15.85,-4.63 23.87,-6.93l25.23 -7.29c1.3,-0.38 2.06,-0.13 2.08,-1.72 0.02,-0.91 0.08,-1.1 0.15,-1.75l1.17 -14.04c0.04,-1.01 0.26,-2.52 0.35,-3.45 0.15,-1.4 0.09,-2.33 0.27,-3.72 0.55,-4.25 0.78,-9.51 1.24,-13.96l0.6 -7c0.04,-1.09 0.14,-2.4 0.3,-3.51 0.51,-3.51 0.43,-7.19 0.89,-10.7 0.45,-3.46 0.64,-7.21 0.91,-10.68l1.29 -14.11c0.36,-3.48 0.38,-6.95 0.9,-10.51l5.2 -59.83c0.27,-3.5 0.46,-7.19 0.91,-10.68l1.2 -14.2c0.32,-5.77 1.24,-11.89 1.52,-17.69 0.17,-3.49 0.8,-7.07 0.95,-10.46 0.15,-3.44 0.68,-6.98 0.94,-10.47 0.26,-3.51 0.45,-7.18 0.91,-10.68 0.16,-1.22 0.16,-2.34 0.26,-3.55l2.66 -30.63 -31.01 -40.51c-88.61,-7.15 -177.94,-2.54 -264.67,3.53 0,2.34 0.49,4.05 0.57,7.14l0.93 10.48c0.14,1.33 0.13,2.44 0.23,3.76l2.35 28.45c0.34,2.32 0.26,4.67 0.6,7l0.85 10.76c0.04,0.88 0.22,2.68 0.33,3.48l0.61 7.19c0.36,4.81 0.92,9.55 1.15,14.25 0.23,4.69 1.03,9.7 1.15,14.26 0.05,2.26 0.51,4.75 0.57,7.04 0.08,3.21 1.08,13.82 1.49,17.71 0.14,1.33 0.13,2.44 0.23,3.76l4.36 53.25c0.17,3.42 0.68,7.32 0.94,10.67l0.58 7.21c0.12,4.9 0.99,9.57 1.14,14.46l1.72 21.28c0.26,3.48 0.77,7.21 0.94,10.67l0.57 7.04c0.11,2.36 0.51,4.87 0.57,7.22 0.02,0.87 0.13,2.6 0.27,3.53 0.71,4.79 0.57,9.49 1.2,14.2 0.16,1.17 0.19,2.39 0.25,3.56l0.92 10.68c0.18,1.25 0.69,0.99 2.39,1.41 1.16,0.29 2,0.57 3.12,0.88l114.43 32.16c1.05,0.3 2.04,0.59 2.96,0.85 0.7,0.19 2.63,0.8 3.2,0.8l-0.03 -0.05z"/>
  <polygon class="fil1" points="150.65,29.22 245.49,29.54 271.31,61.75 252.02,283.27 150.53,312.66 "/>
  <path class="fil2" d="M53.43 65.45c61.42,-7.88 111.03,-9.51 168.12,-1.32l21.82 37.6 -16.93 151.27 -76.18 24.11 -78.35 -21.12 -15.07 -155.34 -3.41 -35.2 -0.01 -0zm53.35 159.23l40.29 10.24 43.96 -8.5 12.5 -124.52c-35.61,-6.14 -72.55,-5.6 -110.65,0.64l13.89 122.14 0 0z"/>
 </g>
</svg>
