<?xml version="1.0" encoding="UTF-8"?>
<!DOCTYPE svg PUBLIC "-//W3C//DTD SVG 1.1//EN" "http://www.w3.org/Graphics/SVG/1.1/DTD/svg11.dtd">
<!-- Creator: CorelDRAW -->
<svg xmlns="http://www.w3.org/2000/svg" xml:space="preserve" width="50.9815mm" height="116.202mm" version="1.1" style="shape-rendering:geometricPrecision; text-rendering:geometricPrecision; image-rendering:optimizeQuality; fill-rule:evenodd; clip-rule:evenodd"
viewBox="0 0 925.41 2109.28"
 xmlns:xlink="http://www.w3.org/1999/xlink"
 xmlns:xodm="http://www.corel.com/coreldraw/odm/2003">
 <defs>
  <style type="text/css">
   <![CDATA[
    .str0 {stroke:#1E3A8A;stroke-width:19.21;stroke-miterlimit:22.9256}
    .fil1 {fill:#1E3A8A}
    .fil0 {fill:#FBF3F3}
    .fil2 {fill:#1E3A8A;fill-rule:nonzero}
   ]]>
  </style>
 </defs>
 <g id="Camada_x0020_1">
  <metadata id="CorelCorpID_0Corel-Layer"/>
  <g id="_2723062035296">
   <path class="fil0" d="M286.53 2098.78l270.01 -43.47c4.59,-288.52 2.41,-598.9 2.01,-852.9 -0.22,-136.74 -9.2,-255.98 4.6,-349.32 28.31,-191.52 192.75,-336.17 334.77,-381.7 9.52,-3.05 18.65,-5.43 27.49,-7.23l0 -274.51 -640.2 87.06 1.31 1822.08z"/>
   <polygon class="fil0" points="52.04,138.07 925.41,9.94 925.41,189.64 285.21,276.7 "/>
   <path class="fil1 str0" d="M286.53 2098.78l-267.85 -138.54c-4.43,-2.29 -9.16,-4.08 -9.08,-9.08l30.08 -1801.89c0.08,-4.99 4.75,-11.57 9.08,-9.08l236.46 136.5c4.32,2.49 9.07,4.09 9.08,9.08l1.31 1803.93c0,4.98 -4.66,11.36 -9.08,9.08z"/>
   <path class="fil2" d="M291.49 2090.96c-0.01,0.14 0.01,-0.15 0.01,-0.18l-0.31 0.05 -0.11 0.11 0.41 0.02zm633.92 -1636.19l0 19.54c-7.9,1.67 -15.76,3.64 -23.58,5.9 -60.48,17.49 -118.38,52.25 -168.49,97.36 -97.38,87.65 -165.03,213.92 -165.08,328.35l-0.55 1144.48 0.04 0c0,5.14 -2.03,9.44 -5.29,12.7 -3.1,3.1 -7.37,5.12 -11.93,5.83l-258.06 40.14c-1.09,0.17 -2.15,0.23 -3.16,0.19l-0.04 0c-4.45,-0.2 -8.44,-2.18 -11.41,-5.16 -2.73,-2.74 -4.67,-6.46 -5.29,-10.43l-0.04 -0.04c-0.16,-1.06 -0.23,-2.23 -0.17,-3.5l17.29 0.74 -0.11 -0.7c-0.04,0 -0.05,-0 -0,-0.01l258.06 -40.14c0.39,-0.06 0.72,-0.16 0.97,-0.29l0.55 -1143.82c0.05,-119.89 70.28,-251.61 171.38,-342.6 52.13,-46.92 112.59,-83.14 176,-101.49 9.58,-2.77 19.22,-5.13 28.91,-7.06zm-634.22 1636.06l-0.61 0.09 0.5 0.02 0.11 -0.11zm-1.54 0.05l0.37 0.02 0.03 -0.68c-0.05,-0.03 -0.08,-0.06 -0.07,-0.07l-0.44 0.03 0.11 0.7zm0.41 0.02l0.33 0.01 0.86 -0.13 0.13 -0.13c-0.24,-0.01 -1.01,-0.27 -1.29,-0.41l-0.03 0.66zm1.41 -0.15l-0.03 -0.1 -0.06 0 -0.13 0.13 0.22 -0.03z"/>
   <path class="fil2" d="M42.16 147.5c-5.23,-2.99 -6.1,-7.02 -4.14,-11.92l0.12 -0.29 0.3 -0.57c0.31,-0.59 4.27,-1.66 11.47,-3.16 0.15,-0.96 0.68,-1.35 1.78,-0.72l-0.23 0.4c74.08,-15.07 451.71,-69.92 784.52,-118.26l89.43 -12.99 0 19.38 -86.73 12.6c-364.94,53.01 -782.07,109.25 -783.29,111.6l-0.22 -0.11c-0.39,0.13 -0.85,-0.15 -1.35,-0.7l-6.89 -3.6 -4.77 8.34zm4.77 -8.34l6.04 2.42c-1.27,-2.06 -2.51,-5.37 -2.95,-7.82l-3.09 5.4z"/>
   <polygon class="fil1" points="285.21,276.7 925.41,189.64 "/>
   <polygon class="fil2" points="284.58,271.95 925.41,184.81 925.41,194.48 285.85,281.45 "/>
  </g>
 </g>
</svg>
