<?xml version="1.0" encoding="UTF-8"?>
<!DOCTYPE svg PUBLIC "-//W3C//DTD SVG 1.1//EN" "http://www.w3.org/Graphics/SVG/1.1/DTD/svg11.dtd">
<!-- Creator: CorelDRAW -->
<svg xmlns="http://www.w3.org/2000/svg" xml:space="preserve" width="27.8401mm" height="15mm" version="1.1" style="shape-rendering:geometricPrecision; text-rendering:geometricPrecision; image-rendering:optimizeQuality; fill-rule:evenodd; clip-rule:evenodd"
viewBox="0 0 76.76 41.36"
 xmlns:xlink="http://www.w3.org/1999/xlink"
 xmlns:xodm="http://www.corel.com/coreldraw/odm/2003">
 <defs>
  <style type="text/css">
   <![CDATA[
    .fil0 {fill:#1E3A8A}
   ]]>
  </style>
 </defs>
 <g id="Camada_x0020_1">
  <metadata id="CorelCorpID_0Corel-Layer"/>
  <g id="_3050151270960">
   <path class="fil0" d="M18.18 22.84c-0.36,0.33 -0.83,0.56 -1.26,0.83 -4.54,2.89 -15.82,10.17 -16.83,14.56 -0.71,3.05 3.01,3.26 5.07,3.09 4.72,-0.39 11.82,-2.82 16.38,-4.53 0.77,-0.29 2.43,-1.05 3.14,-1.17 2.17,2.43 6.77,4.5 10.31,5.1 10.48,1.77 20.57,-4.95 23.02,-14.91 0.93,-3.78 0.44,-4.12 0.55,-7.25l4.89 -3.17c3.81,-2.68 10.98,-7.4 12.89,-11.35 1.3,-2.68 -0.69,-3.94 -3.22,-4.02 -5.05,-0.16 -14.77,3.31 -19.18,5.07 -2.81,1.12 -0.82,0.84 -4.96,-1.72 -5.73,-3.55 -13.3,-3.96 -19.26,-1.03 -3.47,1.71 -6.54,4.23 -8.54,7.55 -1.68,2.8 -2.74,5.69 -3.02,9.09 -0.11,1.39 0.06,2.59 0.01,3.87zm35.41 -15.65l0.54 0.71c0.19,0.24 0.37,0.52 0.6,0.71 0.63,-0.08 1.65,-0.44 2.34,-0.62 0.83,-0.2 1.73,-0.4 2.61,-0.48 0.92,-0.09 1.95,-0.05 2.59,0.4 0.58,0.4 0.76,1.36 0.34,2.2 -1.91,3.81 -13.41,10.11 -17.75,12.54 -4.21,2.36 -27.58,14.05 -30.61,10.6 -1.51,-1.72 1.89,-4.37 2.99,-5.29 0.45,-0.38 1.36,-0.97 1.72,-1.38l-0.45 -1.77c-0.51,0.18 -1.17,0.7 -1.66,1 -3.25,2 -8.09,5.41 -10.74,7.77l-2.7 2.59c-0.33,0.33 -2.4,2.63 -1.2,3.18 1.73,0.8 7.23,-0.51 9.07,-1.04 14.28,-4.06 31.08,-12.29 43.69,-19.74 4.76,-2.82 12.39,-7.68 16.38,-11.38 3.75,-3.47 6.19,-6.46 -1.6,-5.11 -2.91,0.51 -5.65,1.32 -8.36,2.2 -1.36,0.44 -7.07,2.36 -7.82,2.91zm2.2 2.97c0.03,0.08 1.29,2.64 1.36,2.75 0.64,-0.27 3.41,-2.65 3.84,-3.62 -1.74,-0.23 -3.63,0.56 -5.2,0.87zm-40.02 21.91c1.22,0.1 1.81,-0.03 3.07,-0.32 0.54,-0.12 1.73,-0.32 2.13,-0.66l-1.36 -2.64c-0.69,0.29 -3.47,2.71 -3.84,3.61z"/>
   <path class="fil0" d="M22.8 30.58c1.24,-0.25 3.3,-1.16 4.55,-1.65 1.46,-0.57 2.93,-1.18 4.35,-1.82 2.91,-1.31 5.61,-2.58 8.38,-3.96 1.78,-0.89 14.26,-7.6 15.53,-9.12 -0.65,-2.32 -2.53,-4.68 -3.75,-6.04 -5.32,-5.93 -14.61,-7.44 -21.78,-3.86 -4.04,2.01 -7.56,5.74 -9.19,10.52 -0.92,2.71 -1.26,5.69 -0.81,8.73 0.35,2.38 1.47,5.74 2.73,7.21z"/>
   <path class="fil0" d="M26.55 34.85c0.61,0.78 2.7,2.03 3.91,2.58 12.85,5.89 26.7,-3.68 26.42,-17.01l-0.03 -0.82 -7.28 4.13c-2.99,1.74 -12.3,6.38 -15.09,7.6l-7.94 3.52z"/>
  </g>
 </g>
</svg>
