<?xml version="1.0" encoding="UTF-8"?>
<!DOCTYPE svg PUBLIC "-//W3C//DTD SVG 1.1//EN" "http://www.w3.org/Graphics/SVG/1.1/DTD/svg11.dtd">
<!-- Creator: CorelDRAW -->
<svg xmlns="http://www.w3.org/2000/svg" xml:space="preserve" width="32.8097mm" height="19.708mm" version="1.1" style="shape-rendering:geometricPrecision; text-rendering:geometricPrecision; image-rendering:optimizeQuality; fill-rule:evenodd; clip-rule:evenodd"
viewBox="0 0 101.07 60.71"
 xmlns:xlink="http://www.w3.org/1999/xlink"
 xmlns:xodm="http://www.corel.com/coreldraw/odm/2003">
 <defs>
  <style type="text/css">
   <![CDATA[
    .fil0 {fill:#07B6D5;fill-rule:nonzero}
   ]]>
  </style>
 </defs>
 <g id="Camada_x0020_1">
  <metadata id="CorelCorpID_0Corel-Layer"/>
  <g id="_2497619801648">
   <g id="_1346534320784">
    <path class="fil0" d="M49.43 0.04c-17.79,0.57 -23.06,13.27 -24.28,20.15 1.58,-2.55 6.55,-8.15 13.87,-8.15 8.54,0 15.03,9.52 18.99,12.5 4.81,3.61 14.49,8.38 27.2,4.51 10.13,-3.08 14.83,-13.83 15.85,-18.94 -4.9,6.66 -12.33,10.66 -21.53,5.94 -6.33,-3.25 -11.07,-16.63 -30.11,-16.02l0.01 0.02z"/>
    <path class="fil0" d="M24.28 30.27c-17.79,0.57 -23.06,13.27 -24.28,20.15 1.58,-2.55 6.55,-8.15 13.87,-8.15 8.54,0 15.03,9.52 18.99,12.5 4.81,3.61 14.49,8.38 27.2,4.51 10.13,-3.08 14.83,-13.83 15.85,-18.94 -4.9,6.66 -12.33,10.66 -21.53,5.94 -6.33,-3.25 -11.07,-16.63 -30.11,-16.02l0.01 0.02z"/>
   </g>
  </g>
 </g>
</svg>
